<?xml version="1.0" encoding="UTF-8" standalone="no"?>
<!-- Created with Inkscape (http://www.inkscape.org/) -->

<svg
   xmlns:dc="http://purl.org/dc/elements/1.1/"
   xmlns:cc="http://creativecommons.org/ns#"
   xmlns:rdf="http://www.w3.org/1999/02/22-rdf-syntax-ns#"
   xmlns:svg="http://www.w3.org/2000/svg"
   xmlns="http://www.w3.org/2000/svg"
   xmlns:sodipodi="http://sodipodi.sourceforge.net/DTD/sodipodi-0.dtd"
   xmlns:inkscape="http://www.inkscape.org/namespaces/inkscape"
   width="109.63748mm"
   height="93.070747mm"
   viewBox="0 0 109.63748 93.070747"
   version="1.1"
   id="svg8"
   inkscape:version="0.92.1 r15371"
   sodipodi:docname="ikVector_rotate.svg">
  <sodipodi:namedview
     id="base"
     pagecolor="#ffffff"
     bordercolor="#666666"
     borderopacity="1.0"
     inkscape:pageopacity="0.0"
     inkscape:pageshadow="2"
     inkscape:zoom="2.4107109"
     inkscape:cx="207.18894"
     inkscape:cy="175.88173"
     inkscape:document-units="mm"
     inkscape:current-layer="layer1"
     showgrid="false"
     inkscape:window-width="1920"
     inkscape:window-height="1017"
     inkscape:window-x="-8"
     inkscape:window-y="-8"
     inkscape:window-maximized="1"
     fit-margin-top="10"
     fit-margin-left="10"
     fit-margin-bottom="10"
     fit-margin-right="10" />
  <defs
     id="defs2">
    <marker
       inkscape:isstock="true"
       style="overflow:visible"
       id="Arrow1Mstart"
       refX="0"
       refY="0"
       orient="auto"
       inkscape:stockid="Arrow1Mstart">
      <path
         transform="matrix(0.4,0,0,0.4,4,0)"
         style="fill:#001100;fill-opacity:1;fill-rule:evenodd;stroke:#001100;stroke-width:1.00000003pt;stroke-opacity:1"
         d="M 0,0 5,-5 -12.5,0 5,5 Z"
         id="path4493"
         inkscape:connector-curvature="0" />
    </marker>
    <marker
       inkscape:isstock="true"
       style="overflow:visible"
       id="marker6850"
       refX="0"
       refY="0"
       orient="auto"
       inkscape:stockid="Arrow1Mend">
      <path
         transform="matrix(-0.4,0,0,-0.4,-4,0)"
         style="fill:#001100;fill-opacity:1;fill-rule:evenodd;stroke:#001100;stroke-width:1.00000003pt;stroke-opacity:1"
         d="M 0,0 5,-5 -12.5,0 5,5 Z"
         id="path6848"
         inkscape:connector-curvature="0" />
    </marker>
    <marker
       inkscape:collect="always"
       inkscape:stockid="Arrow1Mend"
       orient="auto"
       refY="0"
       refX="0"
       id="Arrow1Mend"
       style="overflow:visible"
       inkscape:isstock="true">
      <path
         id="path4496"
         d="M 0,0 5,-5 -12.5,0 5,5 Z"
         style="fill:#001100;fill-opacity:1;fill-rule:evenodd;stroke:#001100;stroke-width:1.00000003pt;stroke-opacity:1"
         transform="matrix(-0.4,0,0,-0.4,-4,0)"
         inkscape:connector-curvature="0" />
    </marker>
    <marker
       inkscape:stockid="Arrow1Lend"
       orient="auto"
       refY="0"
       refX="0"
       id="Arrow1Lend"
       style="overflow:visible"
       inkscape:isstock="true">
      <path
         id="path4490"
         d="M 0,0 5,-5 -12.5,0 5,5 Z"
         style="fill:#000000;fill-opacity:1;fill-rule:evenodd;stroke:#000000;stroke-width:1.00000003pt;stroke-opacity:1"
         transform="matrix(-0.8,0,0,-0.8,-10,0)"
         inkscape:connector-curvature="0" />
    </marker>
    <marker
       inkscape:stockid="Arrow1Mend"
       orient="auto"
       refY="0"
       refX="0"
       id="Arrow1Mend-4"
       style="overflow:visible"
       inkscape:isstock="true">
      <path
         inkscape:connector-curvature="0"
         id="path4496-9"
         d="M 0,0 5,-5 -12.5,0 5,5 Z"
         style="fill:#000000;fill-opacity:1;fill-rule:evenodd;stroke:#000000;stroke-width:1.00000003pt;stroke-opacity:1"
         transform="matrix(-0.4,0,0,-0.4,-4,0)" />
    </marker>
    <marker
       inkscape:stockid="Arrow1Mend"
       orient="auto"
       refY="0"
       refX="0"
       id="Arrow1Mend-2"
       style="overflow:visible"
       inkscape:isstock="true">
      <path
         inkscape:connector-curvature="0"
         id="path4496-7"
         d="M 0,0 5,-5 -12.5,0 5,5 Z"
         style="fill:#000000;fill-opacity:1;fill-rule:evenodd;stroke:#000000;stroke-width:1.00000003pt;stroke-opacity:1"
         transform="matrix(-0.4,0,0,-0.4,-4,0)" />
    </marker>
    <marker
       inkscape:stockid="Arrow1Mend"
       orient="auto"
       refY="0"
       refX="0"
       id="Arrow1Mend-4-9"
       style="overflow:visible"
       inkscape:isstock="true">
      <path
         inkscape:connector-curvature="0"
         id="path4496-9-2"
         d="M 0,0 5,-5 -12.5,0 5,5 Z"
         style="fill:#000000;fill-opacity:1;fill-rule:evenodd;stroke:#000000;stroke-width:1.00000003pt;stroke-opacity:1"
         transform="matrix(-0.4,0,0,-0.4,-4,0)" />
    </marker>
  </defs>
  <metadata
     id="metadata5">
    <rdf:RDF>
      <cc:Work
         rdf:about="">
        <dc:format>image/svg+xml</dc:format>
        <dc:type
           rdf:resource="http://purl.org/dc/dcmitype/StillImage" />
        <dc:title></dc:title>
      </cc:Work>
    </rdf:RDF>
  </metadata>
  <g
     inkscape:label="Layer 1"
     inkscape:groupmode="layer"
     id="layer1"
     transform="translate(-71.783113,-38.537934)">
    <path
       style="fill:none;stroke:#000000;stroke-width:1;stroke-linecap:butt;stroke-linejoin:miter;stroke-miterlimit:4;stroke-dasharray:none;stroke-opacity:1;marker-end:url(#Arrow1Mend)"
       d="M 98.766507,121.1816 114.99343,60.621904"
       id="path4485"
       inkscape:connector-curvature="0" />
    <path
       style="fill:none;stroke:#000000;stroke-width:1;stroke-linecap:butt;stroke-linejoin:miter;stroke-miterlimit:4;stroke-dasharray:none;stroke-opacity:1;marker-end:url(#Arrow1Mend-4)"
       d="M 98.766507,121.1816 90.329094,71.825378"
       id="path4485-5"
       inkscape:connector-curvature="0"
       sodipodi:nodetypes="cc" />
    <path
       style="fill:none;stroke:#000000;stroke-width:1;stroke-linecap:butt;stroke-linejoin:miter;stroke-miterlimit:4;stroke-dasharray:none;stroke-opacity:1;marker-end:url(#Arrow1Mend-2)"
       d="M 98.766507,121.1816 157.63724,85.341472"
       id="path4485-9"
       inkscape:connector-curvature="0"
       sodipodi:nodetypes="cc" />
    <g
       transform="translate(-2.8018868,-33.272406)"
       id="g6238">
      <g
         style="font-style:normal;font-variant:normal;font-weight:normal;font-stretch:normal;letter-spacing:normal;word-spacing:normal;text-anchor:start;fill:none;fill-opacity:1;fill-rule:evenodd;stroke:#000000;stroke-linecap:butt;stroke-linejoin:miter;stroke-miterlimit:10.43299961;stroke-dasharray:none;stroke-dashoffset:0;stroke-opacity:1"
         id="content"
         transform="matrix(0.3,0,0,-0.3,-52.5,222.75)"
         xml:space="preserve"
         stroke-miterlimit="10.433"
         font-style="normal"
         font-variant="normal"
         font-weight="normal"
         font-stretch="normal"
         font-size-adjust="none"
         letter-spacing="normal"
         word-spacing="normal"><path
           style="fill:#000000;stroke-width:0"
           inkscape:connector-curvature="0"
           d="m 480.71,435.84 -0.07,-0.06 -0.07,-0.07 -0.08,-0.07 -0.08,-0.07 -0.08,-0.08 -0.09,-0.08 -0.09,-0.09 -0.1,-0.08 -0.09,-0.09 -0.1,-0.1 -0.19,-0.19 -0.2,-0.19 -0.19,-0.21 -0.09,-0.1 -0.09,-0.1 -0.09,-0.1 -0.08,-0.11 -0.08,-0.1 -0.08,-0.1 -0.07,-0.1 -0.06,-0.1 -0.06,-0.1 -0.06,-0.1 -0.04,-0.1 -0.04,-0.09 -0.03,-0.09 -0.02,-0.1 -0.02,-0.08 v -0.09 c 0,-0.5 0.5,-1 1,-1 0.45,0 0.7,0.36 0.95,0.66 0.59,0.75 1.73,2.14 3.94,3.23 0.34,0.21 0.84,0.46 0.84,1.05 0,0.5 -0.34,0.75 -0.7,1 -1.1,0.75 -1.64,1.64 -2.05,2.83 -0.09,0.45 -0.3,1.11 -0.98,1.11 -0.71,0 -1,-0.66 -1,-1.05 0,-0.25 0.39,-1.84 1.18,-2.89 h -16.78 c -0.84,0 -1.75,0 -1.75,-1 0,-1 0.91,-1 1.75,-1 z"
           id="path6233" /><path
           style="fill:#000000;stroke-width:0"
           inkscape:connector-curvature="0"
           d="m 459.91,409.14 -0.02,-0.07 -0.01,-0.08 -0.02,-0.07 -0.02,-0.08 -0.03,-0.16 -0.04,-0.16 -0.04,-0.16 -0.04,-0.16 -0.03,-0.16 -0.04,-0.16 -0.02,-0.08 -0.01,-0.07 -0.02,-0.07 -0.01,-0.07 -0.02,-0.07 -0.01,-0.07 -0.02,-0.06 -0.01,-0.06 -0.01,-0.06 -0.01,-0.05 -0.01,-0.05 v -0.04 l -0.01,-0.04 v -0.04 l -0.01,-0.03 V 407 c 0,-0.89 0.71,-1.35 1.44,-1.35 0.61,0 1.5,0.39 1.84,1.39 0.11,0.21 1.8,6.99 2,7.88 0.4,1.64 1.3,5.12 1.6,6.48 0.2,0.64 1.59,2.99 2.78,4.08 0.41,0.34 1.84,1.64 4,1.64 1.28,0 2.03,-0.59 2.08,-0.59 -1.49,-0.25 -2.58,-1.46 -2.58,-2.74 0,-0.79 0.55,-1.75 1.89,-1.75 1.34,0 2.73,1.14 2.73,2.94 0,1.75 -1.59,3.23 -4.12,3.23 -3.25,0 -5.44,-2.43 -6.39,-3.82 -0.39,2.23 -2.19,3.82 -4.53,3.82 -2.28,0 -3.24,-1.93 -3.69,-2.82 -0.89,-1.71 -1.55,-4.69 -1.55,-4.85 0,-0.5 0.5,-0.5 0.61,-0.5 0.5,0 0.55,0.07 0.85,1.16 0.84,3.53 1.84,5.92 3.64,5.92 0.84,0 1.54,-0.39 1.54,-2.28 0,-1.05 -0.15,-1.61 -0.79,-4.19 z"
           id="path6235" /></g>    </g>
    <g
       id="g6284"
       transform="translate(78.102594,-14.35967)">
      <g
         word-spacing="normal"
         letter-spacing="normal"
         font-size-adjust="none"
         font-stretch="normal"
         font-weight="normal"
         font-variant="normal"
         font-style="normal"
         stroke-miterlimit="10.433"
         xml:space="preserve"
         transform="matrix(0.3,0,0,-0.3,-52.5,222.75)"
         id="g6282"
         style="font-style:normal;font-variant:normal;font-weight:normal;font-stretch:normal;letter-spacing:normal;word-spacing:normal;text-anchor:start;fill:none;fill-opacity:1;fill-rule:evenodd;stroke:#000000;stroke-linecap:butt;stroke-linejoin:miter;stroke-miterlimit:10.43299961;stroke-dasharray:none;stroke-dashoffset:0;stroke-opacity:1"><path
           id="path6278"
           d="m 481.67,435.84 -0.07,-0.06 -0.07,-0.07 -0.07,-0.07 -0.09,-0.07 -0.08,-0.08 -0.09,-0.08 -0.09,-0.09 -0.09,-0.08 -0.1,-0.09 -0.1,-0.1 -0.19,-0.19 -0.2,-0.19 -0.19,-0.21 -0.09,-0.1 -0.09,-0.1 -0.09,-0.1 -0.08,-0.11 -0.08,-0.1 -0.08,-0.1 -0.07,-0.1 -0.06,-0.1 -0.06,-0.1 -0.05,-0.1 -0.05,-0.1 -0.04,-0.09 -0.03,-0.09 -0.02,-0.1 -0.02,-0.08 v -0.09 c 0,-0.5 0.5,-1 1,-1 0.45,0 0.7,0.36 0.95,0.66 0.6,0.75 1.74,2.14 3.94,3.23 0.34,0.21 0.84,0.46 0.84,1.05 0,0.5 -0.34,0.75 -0.7,1 -1.09,0.75 -1.64,1.64 -2.05,2.83 -0.09,0.45 -0.29,1.11 -0.98,1.11 -0.7,0 -1,-0.66 -1,-1.05 0,-0.25 0.39,-1.84 1.19,-2.89 h -16.79 c -0.84,0 -1.75,0 -1.75,-1 0,-1 0.91,-1 1.75,-1 z"
           inkscape:connector-curvature="0"
           style="fill:#000000;stroke-width:0" /><path
           id="path6280"
           d="m 472.95,409 0.06,-0.19 0.06,-0.19 0.07,-0.18 0.07,-0.18 0.08,-0.17 0.09,-0.16 0.1,-0.16 0.1,-0.16 0.1,-0.15 0.11,-0.15 0.12,-0.14 0.12,-0.13 0.13,-0.13 0.13,-0.12 0.14,-0.12 0.14,-0.11 0.15,-0.11 0.15,-0.1 0.16,-0.09 0.16,-0.09 0.16,-0.08 0.17,-0.07 0.18,-0.07 0.17,-0.06 0.18,-0.06 0.18,-0.04 0.19,-0.05 0.19,-0.03 0.19,-0.02 0.19,-0.02 0.2,-0.01 0.2,-0.01 c 1.74,0 2.89,1.14 3.69,2.74 0.84,1.79 1.48,4.84 1.48,4.93 0,0.5 -0.43,0.5 -0.59,0.5 -0.5,0 -0.55,-0.2 -0.7,-0.9 -0.69,-2.78 -1.64,-6.17 -3.74,-6.17 -1.05,0 -1.53,0.65 -1.53,2.29 0,1.1 0.59,3.44 0.98,5.17 l 1.41,5.4 c 0.14,0.75 0.64,2.64 0.84,3.39 0.25,1.14 0.75,3.03 0.75,3.32 0,0.91 -0.7,1.35 -1.45,1.35 -0.25,0 -1.55,-0.05 -1.94,-1.74 -0.95,-3.64 -3.14,-12.36 -3.73,-15 -0.06,-0.2 -2.05,-4.18 -5.69,-4.18 -2.59,0 -3.09,2.25 -3.09,4.09 0,2.78 1.4,6.72 2.7,10.16 0.6,1.5 0.85,2.18 0.85,3.14 0,2.23 -1.6,4.07 -4.1,4.07 -4.73,0 -6.58,-7.21 -6.58,-7.67 0,-0.5 0.5,-0.5 0.61,-0.5 0.5,0 0.55,0.11 0.8,0.91 1.23,4.33 3.14,6.17 5.03,6.17 0.44,0 1.25,-0.05 1.25,-1.64 0,-1.2 -0.56,-2.64 -0.86,-3.39 -1.84,-4.94 -2.89,-8.02 -2.89,-10.45 0,-4.74 3.44,-5.99 6.14,-5.99 3.28,0 5.08,2.24 5.92,3.35 z"
           inkscape:connector-curvature="0"
           style="fill:#000000;stroke-width:0" /></g>    </g>
    <g
       transform="translate(32.92217,-41.678066)"
       id="g6338">
      <g
         style="font-style:normal;font-variant:normal;font-weight:normal;font-stretch:normal;letter-spacing:normal;word-spacing:normal;text-anchor:start;fill:none;fill-opacity:1;fill-rule:evenodd;stroke:#000000;stroke-linecap:butt;stroke-linejoin:miter;stroke-miterlimit:10.43299961;stroke-dasharray:none;stroke-dashoffset:0;stroke-opacity:1"
         id="g6336"
         transform="matrix(0.3,0,0,-0.3,-52.5,222.75)"
         xml:space="preserve"
         stroke-miterlimit="10.433"
         font-style="normal"
         font-variant="normal"
         font-weight="normal"
         font-stretch="normal"
         font-size-adjust="none"
         letter-spacing="normal"
         word-spacing="normal"><path
           style="fill:#000000;stroke-width:0"
           inkscape:connector-curvature="0"
           d="m 480.35,435.84 -0.07,-0.06 -0.07,-0.07 -0.07,-0.07 -0.09,-0.07 -0.08,-0.08 -0.09,-0.08 -0.09,-0.09 -0.09,-0.08 -0.1,-0.09 -0.1,-0.1 -0.19,-0.19 -0.2,-0.19 -0.19,-0.21 -0.09,-0.1 -0.09,-0.1 -0.09,-0.1 -0.08,-0.11 -0.08,-0.1 -0.08,-0.1 -0.07,-0.1 -0.06,-0.1 -0.06,-0.1 -0.05,-0.1 -0.05,-0.1 -0.04,-0.09 -0.03,-0.09 -0.02,-0.1 -0.02,-0.08 v -0.09 c 0,-0.5 0.5,-1 1,-1 0.45,0 0.7,0.36 0.95,0.66 0.59,0.75 1.74,2.14 3.94,3.23 0.34,0.21 0.84,0.46 0.84,1.05 0,0.5 -0.34,0.75 -0.7,1 -1.09,0.75 -1.64,1.64 -2.05,2.83 -0.09,0.45 -0.29,1.11 -0.98,1.11 -0.71,0 -1,-0.66 -1,-1.05 0,-0.25 0.39,-1.84 1.19,-2.89 h -16.79 c -0.84,0 -1.75,0 -1.75,-1 0,-1 0.91,-1 1.75,-1 z"
           id="path6332" /><path
           style="fill:#000000;stroke-width:0"
           inkscape:connector-curvature="0"
           d="m 478.83,424.73 v 0.12 l -0.01,0.13 v 0.12 l -0.01,0.11 v 0.12 l -0.01,0.11 -0.02,0.11 -0.01,0.1 -0.03,0.21 -0.04,0.19 -0.04,0.18 -0.05,0.18 -0.05,0.16 -0.06,0.16 -0.06,0.15 -0.07,0.13 -0.07,0.13 -0.07,0.12 -0.08,0.12 -0.08,0.1 -0.08,0.1 -0.09,0.09 -0.09,0.08 -0.09,0.07 -0.09,0.07 -0.09,0.06 -0.09,0.05 -0.09,0.05 -0.09,0.04 -0.1,0.03 -0.09,0.03 -0.09,0.03 -0.09,0.01 -0.09,0.02 h -0.08 -0.09 c -1.25,0 -2.44,-1.29 -2.44,-2.39 0,-0.64 0.25,-0.93 0.8,-1.48 1.05,-1 1.69,-2.3 1.69,-4.09 0,-2.1 -3.03,-13.5 -8.86,-13.5 -2.55,0 -3.69,1.75 -3.69,4.32 0,2.8 1.34,6.44 2.89,10.57 0.35,0.86 0.6,1.54 0.6,2.5 0,2.23 -1.6,4.07 -4.1,4.07 -4.67,0 -6.58,-7.21 -6.58,-7.67 0,-0.5 0.5,-0.5 0.61,-0.5 0.5,0 0.55,0.11 0.8,0.91 1.44,5.03 3.58,6.17 5.03,6.17 0.39,0 1.25,0 1.25,-1.59 0,-1.25 -0.5,-2.6 -0.86,-3.49 -2.19,-5.78 -2.83,-8.08 -2.83,-10.22 0,-5.37 4.38,-6.17 6.68,-6.17 8.37,0 11.2,16.49 11.2,19.08 z"
           id="path6334" /></g>    </g>
    <path
       style="fill:none;stroke:#000000;stroke-width:0.5;stroke-linecap:butt;stroke-linejoin:miter;stroke-miterlimit:4;stroke-dasharray:none;stroke-opacity:1"
       d="M 161.12436,105.93283 157.63724,85.341472"
       id="path4485-5-0"
       inkscape:connector-curvature="0"
       sodipodi:nodetypes="cc" />
    <path
       style="fill:none;stroke:#000000;stroke-width:0.5;stroke-linecap:butt;stroke-linejoin:miter;stroke-miterlimit:4;stroke-dasharray:none;stroke-opacity:1"
       d="M 161.12436,105.93283 98.766507,121.1816"
       id="path4485-5-0-4"
       inkscape:connector-curvature="0"
       sodipodi:nodetypes="cc" />
    <path
       style="fill:none;stroke:#000000;stroke-width:0.5;stroke-linecap:butt;stroke-linejoin:miter;stroke-miterlimit:4;stroke-dasharray:none;stroke-opacity:1"
       d="M 118.48055,81.213262 114.99343,60.621904"
       id="path4485-5-0-5"
       inkscape:connector-curvature="0"
       sodipodi:nodetypes="cc" />
    <path
       style="fill:none;stroke:#000000;stroke-width:0.5;stroke-linecap:butt;stroke-linejoin:miter;stroke-miterlimit:4;stroke-dasharray:none;stroke-opacity:1"
       d="M 118.48055,81.213262 98.7665,121.1816"
       id="path4485-5-0-4-5"
       inkscape:connector-curvature="0"
       sodipodi:nodetypes="cc" />
    <path
       d="m 98.811952,104.7184 a 63.748138,37.482567 0 0 1 35.805658,32.32649"
       sodipodi:open="true"
       sodipodi:end="6.2464734"
       sodipodi:start="5.165375"
       sodipodi:ry="37.482567"
       sodipodi:rx="63.748138"
       sodipodi:cy="138.42064"
       sodipodi:cx="70.91243"
       sodipodi:type="arc"
       transform="rotate(-12.298981)"
       id="path6840"
       style="fill:none;fill-opacity:1;stroke:#001100;stroke-width:0.5;stroke-miterlimit:4;stroke-dasharray:none;stroke-dashoffset:0;stroke-opacity:1;marker-start:url(#Arrow1Mstart)" />
    <g
       id="g7555"
       transform="translate(47.982311,-21.714623)">
      <g
         word-spacing="normal"
         letter-spacing="normal"
         font-size-adjust="none"
         font-stretch="normal"
         font-weight="normal"
         font-variant="normal"
         font-style="normal"
         stroke-miterlimit="10.433"
         xml:space="preserve"
         transform="matrix(0.3,0,0,-0.3,-52.5,222.75)"
         id="g7553"
         style="font-style:normal;font-variant:normal;font-weight:normal;font-stretch:normal;letter-spacing:normal;word-spacing:normal;text-anchor:start;fill:none;fill-opacity:1;fill-rule:evenodd;stroke:#000000;stroke-linecap:butt;stroke-linejoin:miter;stroke-miterlimit:10.43299961;stroke-dasharray:none;stroke-dashoffset:0;stroke-opacity:1"><path
           id="path7545"
           d="m 463.44,441.78 v 0.16 0.17 l -0.01,0.16 v 0.08 0.08 l -0.01,0.08 -0.01,0.08 -0.01,0.07 -0.01,0.07 -0.02,0.07 -0.01,0.07 -0.02,0.07 -0.02,0.06 -0.03,0.06 -0.03,0.06 -0.03,0.06 -0.03,0.05 -0.04,0.05 -0.04,0.05 -0.05,0.04 -0.05,0.04 -0.03,0.01 -0.03,0.02 -0.03,0.02 -0.03,0.01 -0.03,0.01 -0.03,0.02 -0.03,0.01 -0.04,0.01 -0.04,0.01 -0.03,0.01 h -0.04 l -0.04,0.01 h -0.04 l -0.05,0.01 h -0.04 -0.05 c -1,0 -1,-0.89 -1,-1.78 v -46.24 c 0,-0.9 0,-1.79 1,-1.79 1,0 1,0.89 1,1.79 z"
           inkscape:connector-curvature="0"
           style="fill:#000000;stroke-width:0" /><path
           id="path7547"
           d="m 494.51,435.84 -0.07,-0.06 -0.07,-0.07 -0.08,-0.07 -0.08,-0.07 -0.09,-0.08 -0.08,-0.08 -0.09,-0.09 -0.1,-0.08 -0.09,-0.09 -0.1,-0.1 -0.2,-0.19 -0.19,-0.19 -0.19,-0.21 -0.09,-0.1 -0.09,-0.1 -0.09,-0.1 -0.09,-0.11 -0.08,-0.1 -0.07,-0.1 -0.07,-0.1 -0.07,-0.1 -0.06,-0.1 -0.05,-0.1 -0.04,-0.1 -0.04,-0.09 -0.03,-0.09 -0.03,-0.1 -0.01,-0.08 -0.01,-0.09 c 0,-0.5 0.5,-1 1,-1 0.46,0 0.71,0.36 0.96,0.66 0.59,0.75 1.73,2.14 3.93,3.23 0.35,0.21 0.85,0.46 0.85,1.05 0,0.5 -0.35,0.75 -0.7,1 -1.1,0.75 -1.65,1.64 -2.05,2.83 -0.1,0.45 -0.3,1.11 -0.99,1.11 -0.7,0 -1,-0.66 -1,-1.05 0,-0.25 0.39,-1.84 1.19,-2.89 h -16.78 c -0.84,0 -1.75,0 -1.75,-1 0,-1 0.91,-1 1.75,-1 z"
           inkscape:connector-curvature="0"
           style="fill:#000000;stroke-width:0" /><path
           id="path7549"
           d="m 473.82,409.14 -0.01,-0.07 -0.02,-0.08 -0.01,-0.07 -0.02,-0.08 -0.04,-0.16 -0.03,-0.16 -0.04,-0.16 -0.04,-0.16 -0.04,-0.16 -0.03,-0.16 -0.02,-0.08 -0.02,-0.07 -0.01,-0.07 -0.02,-0.07 -0.01,-0.07 -0.02,-0.07 -0.01,-0.06 -0.01,-0.06 -0.01,-0.06 -0.01,-0.05 -0.01,-0.05 -0.01,-0.04 v -0.04 l -0.01,-0.04 V 407.02 407 c 0,-0.89 0.7,-1.35 1.44,-1.35 0.61,0 1.5,0.39 1.84,1.39 0.11,0.21 1.8,6.99 2,7.88 0.39,1.64 1.3,5.12 1.6,6.48 0.2,0.64 1.59,2.99 2.78,4.08 0.4,0.34 1.84,1.64 4,1.64 1.28,0 2.03,-0.59 2.08,-0.59 -1.49,-0.25 -2.58,-1.46 -2.58,-2.74 0,-0.79 0.54,-1.75 1.89,-1.75 1.34,0 2.73,1.14 2.73,2.94 0,1.75 -1.59,3.23 -4.12,3.23 -3.25,0 -5.44,-2.43 -6.39,-3.82 -0.39,2.23 -2.19,3.82 -4.53,3.82 -2.29,0 -3.24,-1.93 -3.69,-2.82 -0.89,-1.71 -1.55,-4.69 -1.55,-4.85 0,-0.5 0.5,-0.5 0.61,-0.5 0.5,0 0.55,0.07 0.84,1.16 0.85,3.53 1.85,5.92 3.64,5.92 0.85,0 1.55,-0.39 1.55,-2.28 0,-1.05 -0.15,-1.61 -0.8,-4.19 z"
           inkscape:connector-curvature="0"
           style="fill:#000000;stroke-width:0" /><path
           id="path7551"
           d="m 501.11,441.78 v 0.16 0.17 0.16 l -0.01,0.08 v 0.08 l -0.01,0.08 -0.01,0.08 -0.01,0.07 -0.01,0.07 -0.01,0.07 -0.02,0.07 -0.02,0.07 -0.02,0.06 -0.03,0.06 -0.02,0.06 -0.04,0.06 -0.03,0.05 -0.04,0.05 -0.04,0.05 -0.05,0.04 -0.05,0.04 -0.03,0.01 -0.02,0.02 -0.03,0.02 -0.03,0.01 -0.03,0.01 -0.04,0.02 -0.03,0.01 -0.04,0.01 -0.03,0.01 -0.04,0.01 h -0.04 l -0.04,0.01 h -0.04 l -0.05,0.01 h -0.04 -0.05 c -1,0 -1,-0.89 -1,-1.78 v -46.24 c 0,-0.9 0,-1.79 1,-1.79 1,0 1,0.89 1,1.79 z"
           inkscape:connector-curvature="0"
           style="fill:#000000;stroke-width:0" /></g>    </g>
  </g>
</svg>
